STARTFONT 2.3
FONT -FontForge-Henny Penny-Book-R-Normal--18-180-72-72-P-102-ISO10646-1
SIZE 18 72 72  4
FONTBOUNDINGBOX 26 33 -3 -12
COMMENT "Generated by fontforge, http://fontforge.sourceforge.net"
COMMENT "Copyright (c) 2012, Brownfox (gayaneh.b@gmail.com), with Reserved Font Name "Henny Penny""
STARTPROPERTIES 40
FOUNDRY "FontForge"
FAMILY_NAME "Henny Penny"
WEIGHT_NAME "Book"
SLANT "R"
SETWIDTH_NAME "Normal"
ADD_STYLE_NAME ""
PIXEL_SIZE 18
POINT_SIZE 180
RESOLUTION_X 72
RESOLUTION_Y 72
SPACING "P"
AVERAGE_WIDTH 102
CHARSET_REGISTRY "ISO10646"
CHARSET_ENCODING "1"
FONTNAME_REGISTRY ""
CHARSET_COLLECTIONS "ISO10646-1"
BITS_PER_PIXEL 4
FONT_NAME "HennyPenny-Regular"
FACE_NAME "Henny Penny"
COPYRIGHT "Copyright (c) 2012, Brownfox (gayaneh.b@gmail.com), with Reserved Font Name "Henny Penny""
FONT_VERSION "1.001"
FONT_ASCENT 14
FONT_DESCENT 4
UNDERLINE_POSITION -2
UNDERLINE_THICKNESS 1
X_HEIGHT 10
CAP_HEIGHT 13
RAW_ASCENT 799
RAW_DESCENT 200
NORM_SPACE 5
RELATIVE_WEIGHT 40
RELATIVE_SETWIDTH 50
SUPERSCRIPT_X 0
SUPERSCRIPT_Y 6
SUPERSCRIPT_SIZE 10
SUBSCRIPT_X 0
SUBSCRIPT_Y 1
SUBSCRIPT_SIZE 10
AVG_LOWERCASE_WIDTH 91
AVG_UPPERCASE_WIDTH 127
ENDPROPERTIES
CHARS 233
STARTCHAR space
ENCODING 32
SWIDTH 270 0
DWIDTH 5 0
BBX 1 1 0 0
BITMAP
00
ENDCHAR
STARTCHAR exclam
ENCODING 33
SWIDTH 249 0
DWIDTH 4 0
BBX 4 18 0 -1
BITMAP
0BD2
1FF7
0FF8
0CF7
0AF7
08F6
06F4
04F3
03F1
02F0
01D0
00B0
0080
0020
0000
0000
0CD2
0BE2
ENDCHAR
STARTCHAR quotedbl
ENCODING 34
SWIDTH 292 0
DWIDTH 5 0
BBX 5 6 0 9
BITMAP
1D1C40
1F2E50
0E2D40
0C1C20
091B10
050600
ENDCHAR
STARTCHAR numbersign
ENCODING 35
SWIDTH 1030 0
DWIDTH 19 0
BBX 17 21 1 -6
BITMAP
000000000300000000
000000004500000000
000000008003000000
000000018019000000
000000072073000000
3221001A01A0000000
456679FC7DA5567630
000000C01C00000210
000004607500000000
00000A10B000000000
00004B38A678860000
79BCFB9E4100000000
3203D0570000000000
000A70B20000000000
002E13A00000000000
00980A400000000000
00D22C000000000000
003086000000000000
0000D1000000000000
000590000000000000
000310000000000000
ENDCHAR
STARTCHAR dollar
ENCODING 36
SWIDTH 799 0
DWIDTH 14 0
BBX 12 21 1 -5
BITMAP
000000015000
000000043054
00003AEFCBD0
0002ED386F90
0008F9080960
0009FC080530
0007FF950200
0001EFF50000
00006FFE3000
000008FFD100
000000EFF900
0000036BFF20
00500722EF60
00900800AF70
02D008008F60
07F42600BF20
0B9EA317F700
2104DEEB5000
000080000000
000070000000
000010000000
ENDCHAR
STARTCHAR percent
ENCODING 37
SWIDTH 789 0
DWIDTH 14 0
BBX 14 17 0 0
BITMAP
019EEA10000440
0AD23DB0001A00
0EA008F000A200
0FC006F1077000
0AF61BA03B0000
019EE911C20000
00000009500000
00000059000000
000002C1000000
00000B306CFC40
00007706F518F3
0003B00EA001F9
001B101F8000FB
0094000F9002F8
0480000AE41AE2
1B0000019EEB30
73000000000000
ENDCHAR
STARTCHAR ampersand
ENCODING 38
SWIDTH 773 0
DWIDTH 14 0
BBX 14 18 0 -2
BITMAP
0002AED5000000
000D616E000000
005B003E000000
007900A9000000
007B07E2000000
006E9F40000000
002FF700003B00
008FD0004AFF00
05FFF516418E00
0DF6ED10004C00
3FF16F80005900
6FE00BF4009400
5FF102EE31B000
1FF7005FEA3000
07FF7109FE3005
004BEED8AFE792
000000000BFF90
00000000009C10
ENDCHAR
STARTCHAR quotesingle
ENCODING 39
SWIDTH 174 0
DWIDTH 3 0
BBX 2 6 1 8
BITMAP
D2
F3
E3
B2
92
50
ENDCHAR
STARTCHAR parenleft
ENCODING 40
SWIDTH 431 0
DWIDTH 8 0
BBX 8 26 0 -8
BITMAP
00024000
000B0000
00770000
01E20000
06C00000
0C900000
1F600000
5F400000
8F300000
AF200000
BF200000
CF200000
BF300000
AF400000
8F700000
5FA00000
1FE00000
0BF40000
05F90000
00DF1000
004F8000
000AE200
0001CB00
00002D60
000002C4
00000003
ENDCHAR
STARTCHAR parenright
ENCODING 41
SWIDTH 443 0
DWIDTH 8 0
BBX 8 18 0 -4
BITMAP
05200000
03DA1000
001DD300
0002EE10
00006FA0
00000EF2
000009F7
000006FA
000004FC
000003FB
000004FA
000007F7
00000BF1
00002F90
0000AD10
0008E300
019C2000
6B600000
ENDCHAR
STARTCHAR asterisk
ENCODING 42
SWIDTH 490 0
DWIDTH 9 0
BBX 8 8 0 9
BITMAP
00025000
0005F000
0002F26B
0530B5E4
1DFDBB30
0004BB30
006E26F4
005200BA
ENDCHAR
STARTCHAR plus
ENCODING 43
SWIDTH 440 0
DWIDTH 8 0
BBX 7 11 0 0
BITMAP
00003000
00008000
00008000
00008000
0002A240
1EFEFB90
0000B000
0000A000
00009000
00008100
00001000
ENDCHAR
STARTCHAR comma
ENCODING 44
SWIDTH 251 0
DWIDTH 5 0
BBX 4 6 0 -3
BITMAP
0BE3
1FF9
08F8
00C3
01A0
0620
ENDCHAR
STARTCHAR hyphen
ENCODING 45
SWIDTH 436 0
DWIDTH 8 0
BBX 6 2 1 3
BITMAP
310012
9DFFEA
ENDCHAR
STARTCHAR period
ENCODING 46
SWIDTH 238 0
DWIDTH 4 0
BBX 4 3 0 -1
BITMAP
0BE2
1FF6
0BD2
ENDCHAR
STARTCHAR slash
ENCODING 47
SWIDTH 690 0
DWIDTH 12 0
BBX 13 18 0 -1
BITMAP
00000000000420
00000000001A00
0000000000A200
00000000067000
000000003B0000
00000001C20000
00000009500000
00000059000000
000002C1000000
00000B30000000
00008600000000
0003A000000000
001B1000000000
00940000000000
05800000000000
1B000000000000
82000000000000
10000000000000
ENDCHAR
STARTCHAR zero
ENCODING 48
SWIDTH 723 0
DWIDTH 13 0
BBX 13 13 0 1
BITMAP
0004BEFEA30000
009E61139F8000
08F3000008F700
2FB0000000EF20
8F600000009F70
BF400000006FA0
CF400000005FC0
AF500000005FB0
7F900000007F90
1FE1000000AF30
07FA000003FA00
008FB4115DB100
00039DFEB60000
ENDCHAR
STARTCHAR one
ENCODING 49
SWIDTH 505 0
DWIDTH 9 0
BBX 9 17 0 -1
BITMAP
0000800000
0004D00000
001CF10000
00AFF30000
2BCEF50000
A406F80000
0003FA0000
0000FD0000
0000DF0000
0000CF3000
0000AF6000
00009F9000
00008FD000
00009FF600
0003EFFFA0
01AE952000
0571000000
ENDCHAR
STARTCHAR two
ENCODING 50
SWIDTH 534 0
DWIDTH 10 0
BBX 10 16 0 -1
BITMAP
018DFD6000
09414EF800
540006FF10
800002FF30
700003FF20
500005FC00
00000AF500
00003FB000
0001CD1000
000BD20000
01BB100000
4D80000000
18C5000004
0019D73182
00004EFF60
000001AA00
ENDCHAR
STARTCHAR three
ENCODING 51
SWIDTH 511 0
DWIDTH 9 0
BBX 10 15 0 -1
BITMAP
1741000000
2FFFEDD500
2F5102D100
2900094000
2300660000
0003A00000
00019C5000
000004FA00
0000007F90
5000001FE1
9000000FF2
B400004FF2
5E7214DFC0
0AFFFFFF40
006CFEB300
ENDCHAR
STARTCHAR four
ENCODING 52
SWIDTH 712 0
DWIDTH 13 0
BBX 13 18 0 -2
BITMAP
00000002000000
0000001A000000
000000B8000000
000009F7000000
000066F8000000
000530EB000000
006400CE000000
0670009F300000
6E10007F600000
6DD7104FA00000
004AEA6FE00200
000018EFFA7900
0000001CFFF400
00000008F85000
00000005FB0000
00000006FF2000
0000009CEFB100
00000000026B60
ENDCHAR
STARTCHAR five
ENCODING 53
SWIDTH 757 0
DWIDTH 14 0
BBX 14 18 0 -2
BITMAP
00000000000001
0000001D810037
0000007EFE85D2
000001719FFFB0
0000061005EF40
00001600001600
00008530000000
0000BFFE810000
0000028EFC1000
00000003FF8000
340000009FE000
800000005FF000
900000005FE000
900000007FB000
A0000000BF6000
67000004FC0000
0B93117ED20000
006CEEC7100000
ENDCHAR
STARTCHAR six
ENCODING 54
SWIDTH 598 0
DWIDTH 11 0
BBX 11 14 0 0
BITMAP
0005BEEC7100
009F92028C10
07FA00000460
1EF200000000
6FD3AEEB5000
9FEC4129F700
BFF30000AF20
BFC000004F60
9FA000002F80
7FA000002F80
2FD000004F50
09F600009D00
00AF7118E400
0005BEEB3000
ENDCHAR
STARTCHAR seven
ENCODING 55
SWIDTH 507 0
DWIDTH 9 0
BBX 9 15 0 -2
BITMAP
4210012580
EFFFFFFF70
B80259ED00
9200007500
700000B000
4000076000
00001D0000
0000890000
0001E40000
0007F00000
000DC00000
005FA00000
00AF800000
01FE700000
0130000000
ENDCHAR
STARTCHAR eight
ENCODING 56
SWIDTH 476 0
DWIDTH 9 0
BBX 9 15 0 -1
BITMAP
007DEC4000
09FB12B100
1FF4004500
3FF5005300
1FFC108000
09FFD91000
01BFFE4000
01BCEFF400
1D4008FD00
890000AF50
C500003F70
D500001F60
A900004F20
3E8214D700
03AEFC5000
ENDCHAR
STARTCHAR nine
ENCODING 57
SWIDTH 601 0
DWIDTH 11 0
BBX 11 14 0 0
BITMAP
007CFEC60000
0BE512AFB100
6F70000BF900
BF300004FF20
CF100001FF60
BF300001FF90
6FB00003FF90
0BFA313CFF80
007CFEC9FF60
00000005FF20
00000009FB00
0000002EF300
2A4115DE5000
03ADFD920000
ENDCHAR
STARTCHAR colon
ENCODING 58
SWIDTH 246 0
DWIDTH 4 0
BBX 4 10 0 -1
BITMAP
0BE2
1FF6
0BD2
0000
0000
0000
0000
07E4
0CF7
08E3
ENDCHAR
STARTCHAR semicolon
ENCODING 59
SWIDTH 266 0
DWIDTH 5 0
BBX 3 11 1 -3
BITMAP
6E80
BFD0
6E70
0000
0000
0000
AE60
DFA0
3F60
1B00
8100
ENDCHAR
STARTCHAR less
ENCODING 60
SWIDTH 522 0
DWIDTH 9 0
BBX 8 9 1 1
BITMAP
00000071
00002B40
0007A100
04B50000
AB100000
4C910000
005C8100
00006D60
00000163
ENDCHAR
STARTCHAR equal
ENCODING 61
SWIDTH 655 0
DWIDTH 12 0
BBX 10 4 1 3
BITMAP
003579BDEC
9A97643210
0000000000
DFEEDCCB60
ENDCHAR
STARTCHAR greater
ENCODING 62
SWIDTH 533 0
DWIDTH 10 0
BBX 8 9 1 1
BITMAP
84000000
07910000
002A6000
00006B40
000001D4
00000890
0002B500
006A1000
07600000
ENDCHAR
STARTCHAR question
ENCODING 63
SWIDTH 564 0
DWIDTH 10 0
BBX 10 17 0 -2
BITMAP
004BEEC700
07D413BFB0
2F60001EF5
8F80000CF8
9FF4000CF8
7FFC001FF5
1CE8009FD0
000006FD20
00007FA100
0007D40000
0058000000
0090000000
00B0000000
009E400000
0000000000
004E600000
003E600000
ENDCHAR
STARTCHAR at
ENCODING 64
SWIDTH 898 0
DWIDTH 16 0
BBX 16 18 0 -5
BITMAP
0000039DEED82000
00008D720138D400
000A900000002D20
00680000000003A0
01B0000002FB00B1
065006DEC7FA0064
0A008F615FF90046
0A02FA0008F80036
1807F60004F70036
1809F50004F60044
1909F70005F70072
0A06FB0008F800A0
0A01DF7159BD1760
07502AEFC22CE800
01C10000CE400000
007A00008F900000
0009C5114E500000
00005BEEC5000000
ENDCHAR
STARTCHAR A
ENCODING 65
SWIDTH 784 0
DWIDTH 14 0
BBX 15 17 0 -2
BITMAP
0000149B00000000
000DEEFF20000000
000007EF70000000
0000094FC0000000
00000A0EF2000000
0000360AF7000000
00008205FC000000
0000C402FF300000
0003CCEBFF800000
00085027EFD00000
000C00006FF30000
004900001EF90000
01C500000AFE0000
EFF9000005FF5000
026C700001FFD300
0000000015FFFF50
00000000B9410000
ENDCHAR
STARTCHAR B
ENCODING 66
SWIDTH 685 0
DWIDTH 12 0
BBX 13 18 0 -3
BITMAP
44458BEFC50000
04EF7029FF4000
006F6000DF8000
003F70009F7000
001F8000AF2000
000FA002E50000
000EB26A200000
000EFCBEFA2000
000EC0007FE200
000ED0000AFA00
000EF00004FF00
000FF10002FF10
000FF20004FE00
001FF40009F900
003FFB117FC100
01BFFFFEC71000
4B610000000000
50000000000000
ENDCHAR
STARTCHAR C
ENCODING 67
SWIDTH 742 0
DWIDTH 13 0
BBX 14 18 0 -2
BITMAP
00000000000600
00000000000800
00000000000B00
00028CEFDCDE00
007FD61127EF10
06FE2000002D40
1EF60000000370
7FF10000000000
AFD00000000000
DFC00000000000
DFC00000000000
DFD00000000042
BFF10000000062
6FF60000000080
1EFD1000000190
05FFA000000930
005EFC5114B600
00017CEFD93000
ENDCHAR
STARTCHAR D
ENCODING 68
SWIDTH 726 0
DWIDTH 13 0
BBX 13 16 0 -4
BITMAP
4988ACEFEB4000
17FF9103AFF600
00BF40000AFF20
008F400002FF70
006F400000CFB0
005F500000AFC0
005F600000BFA0
004F700000DF80
004F800002FF30
005FC0000AF800
006FF6129F8000
009FFFFB720000
01EFA510000000
0AB30000000000
77000000000000
30000000000000
ENDCHAR
STARTCHAR E
ENCODING 69
SWIDTH 557 0
DWIDTH 10 0
BBX 10 17 0 -2
BITMAP
5544579CE0
2DFF5210A0
06FF100060
03FF200000
00FF200000
00DF301000
00BF407000
00AFFEA000
008F539000
007F607000
005F701000
004F800000
002F900003
001FA00008
003FD0005D
8FFFFECEFB
0001234673
ENDCHAR
STARTCHAR F
ENCODING 70
SWIDTH 533 0
DWIDTH 10 0
BBX 10 16 0 -1
BITMAP
00000037CD
356892108C
15FFB00059
00BFB00055
009FB01051
006FC06000
004FC2B000
002FFFD000
001FD1A000
000ED07000
000DE03000
000CE00000
000BF00000
000BF10000
014EF50000
6FDBCE8000
ENDCHAR
STARTCHAR G
ENCODING 71
SWIDTH 750 0
DWIDTH 14 0
BBX 14 14 0 0
BITMAP
00000000000003
00000000000074
00039DFE9204B0
008FD5113BEF30
08FD100000DB00
2FF4000000A500
9FD00000008000
CFB00000136AB0
DFB0006EDFFE10
CFC0000006FB00
9FF1000003FC00
2FF9000006FD00
05FF92016C8C00
0029DFEB600000
ENDCHAR
STARTCHAR H
ENCODING 72
SWIDTH 743 0
DWIDTH 13 0
BBX 14 19 0 -3
BITMAP
38410000000000
02EFFFE4000000
009FB1001259D4
008F700AFFFE10
008F700009FB00
008F700005FB00
008F700003FA00
008F700003FA00
008F800139F900
008FFEEDCEF900
008FB20005F800
008F800003F800
009F800001F800
009F800000F800
009F800000E800
00AF900004FB00
01CFA006FFFFC1
6EFFF401310120
53102300000000
ENDCHAR
STARTCHAR I
ENCODING 73
SWIDTH 438 0
DWIDTH 8 0
BBX 10 19 -1 -4
BITMAP
3CBAAACDFC
026EFFC300
000AFF3000
0008FE0000
0007FC0000
0007FA0000
0007F80000
0007F60000
0006F50000
0006F40000
0007F20000
0007F10000
0007F00000
0007F00000
0008F00000
000BF40000
019FFFF300
7C84100000
2000000000
ENDCHAR
STARTCHAR J
ENCODING 74
SWIDTH 628 0
DWIDTH 11 0
BBX 13 22 0 -5
BITMAP
00000000001510
000001247BE900
0000DFFFFC1000
000002CFF50000
0000005FF30000
0000002FF20000
0000000FF20000
0000000DF20000
0000000DF20000
0000000CF10000
0000000CF00000
0000000CE00000
0000000DC00000
0000000EB00000
0000001F800000
0000003F500000
0000007F100000
2CE900BB000000
BFFF22F5000000
DFFE1AB0000000
A623AD10000000
1AEE9100000000
ENDCHAR
STARTCHAR K
ENCODING 75
SWIDTH 866 0
DWIDTH 16 0
BBX 16 17 0 -1
BITMAP
01137A03A5100000
BFFFC200AFFFE000
04FF50007C300000
00EF4001B1000000
00DF401A20000000
00CF50A500000000
00BF59F500000000
00AFCCFC00000000
009F83FF40000000
008F60BFD1000092
007F603FF900001A
006F6008FF80000B
005F7000BFFB305D
005F80001BFFFFF8
008FB000005CFE90
05FFF90000000000
0000375000000000
ENDCHAR
STARTCHAR L
ENCODING 76
SWIDTH 660 0
DWIDTH 12 0
BBX 12 14 0 0
BITMAP
574100000000
38DFFEEE1000
002FFF300000
000EFC000000
000DFA000000
000CF8000000
000CF7000000
000BF5000610
000BF4000350
000BF3000190
000CF30001E0
001EF6102AF4
19DFFFFFFFF7
175421100000
ENDCHAR
STARTCHAR M
ENCODING 77
SWIDTH 1089 0
DWIDTH 20 0
BBX 21 15 0 -1
BITMAP
0000000000000000011000
000000000000001EFF6000
000100000000007F720000
000BECB3000000DD000000
00009CFE200005FE000000
00001B8FB00006DF100000
00000B1EF800529F400000
00000A06FF40606F700000
00000A00CFE8202FB00000
000009004FF9000EE00000
000008000BF2000BF50000
0000170002800008FB0000
AE40620000000007FF7100
EFEA70000000003EFFFE10
6EE7000000000595210100
ENDCHAR
STARTCHAR N
ENCODING 78
SWIDTH 799 0
DWIDTH 14 0
BBX 15 18 0 -4
BITMAP
0012100000001420
DFFFD1000EEFFC30
01CFFC10004F6000
008CFFC1000C1000
00649FFA000A0000
00640CFF90090000
005402EFF7090000
0054004FFF8B0000
00540007FFFD0000
00540000AFFC0000
004400001CFC0000
0044000002DB0000
0055000000390000
0055000000000000
0087000000000000
03EC000000000000
BEEFC40000000000
0002650000000000
ENDCHAR
STARTCHAR O
ENCODING 79
SWIDTH 747 0
DWIDTH 13 0
BBX 14 13 0 0
BITMAP
0005BEFEB60000
01BE6114CFD200
0AF400000BFD20
4FB0000002FFA0
AF70000000AFF1
CF500000007FF4
DF600000005FF5
CF700000004FF3
9FB00000005FF1
4FF20000008FA0
0AFC000001EE20
01BFC4114DE300
0005ADFEC71000
ENDCHAR
STARTCHAR P
ENCODING 80
SWIDTH 623 0
DWIDTH 11 0
BBX 12 16 0 -3
BITMAP
DEEFFFFFE910
017FFD21AFC0
000CF7001FF2
0009F5000EF3
0009F4000EF1
0009F4004FC0
0009F403DF40
000AFEFEB300
000AF4000000
000BF4000000
000CF4000000
000EF5000000
001FF6000000
007FF9000000
3BFFFE200000
000013774000
ENDCHAR
STARTCHAR Q
ENCODING 81
SWIDTH 804 0
DWIDTH 14 0
BBX 21 22 0 -8
BITMAP
00017CEED9300000000000
004E82028FF90000000000
04F7000003EFA000000000
0DC00000005FF500000000
6F700000000CFC00000000
AF4000000006FF10000000
CF3000000002FF30000000
DF3000000001FF30000000
CF5000000000FF20000000
AF900003DE81FE00000000
6FE1000B13DBF900000000
1EF80036006FF300000000
04FF5053003FC000000000
005EF98315DEF300000000
00028CEFD939F900000000
000000000006FE00000000
000000000003FF50000000
000000000000EFB0000050
000000000000AFF5000270
0000000000004FFE513C20
00000000000009FFFFF900
000000000000007DFD7000
ENDCHAR
STARTCHAR R
ENCODING 82
SWIDTH 869 0
DWIDTH 16 0
BBX 17 14 0 -1
BITMAP
EFFFFFFFD600000000
04EFF813DF40000000
008FE0007FA0000000
004FC0006FC0000000
002FB000BFB0000000
000FB13AFF60000000
000EFFFFFB00000000
000CC07FA000000000
000BD02FE100000000
000BE00BF800000500
000BF104FF60000620
002EF5009FF9302C10
5FFEFE300AFFFFFA00
00001450005CEE9100
ENDCHAR
STARTCHAR S
ENCODING 83
SWIDTH 517 0
DWIDTH 9 0
BBX 11 17 -1 -2
BITMAP
000000000500
00005CFB2800
0004F812BB00
000AF1003900
000BF3000600
0007FA000000
0001EF700000
00005FF50000
000008FF4000
000000AFE100
1200001DFA00
09000006FF20
0A200000FF50
08900000DF60
07F40000EF30
07BB7118F800
06005DEC6000
ENDCHAR
STARTCHAR T
ENCODING 84
SWIDTH 659 0
DWIDTH 12 0
BBX 13 19 0 -3
BITMAP
8D963100000000
9FFFFFFFFFFF50
7D30009E016F50
4A0000AE000A40
0A0000AE000820
080000BE000500
052000CE000000
000000DE000000
000000EE000000
000000EE000000
000000FE000000
000001FE000000
000002FE000000
000003FF000000
000005FF200000
000009FFA20000
00005FFFFFE300
0004E941000000
00171000000000
ENDCHAR
STARTCHAR U
ENCODING 85
SWIDTH 690 0
DWIDTH 12 0
BBX 14 14 0 1
BITMAP
00000277000000
0358CFA2000000
EFFFFA00000000
05FFF20DECCDB4
00DFE0003AF500
00CFC00000E100
00BFB00000C000
00BFB00000A000
009FC000009000
007FE000009000
004FF200008000
000DF800045000
0003FF513B0000
00003BEEA10000
ENDCHAR
STARTCHAR V
ENCODING 86
SWIDTH 798 0
DWIDTH 14 0
BBX 16 14 0 0
BITMAP
000026A700000000
BFEFFD2000000004
016EFD00000001A9
0004FF3000138E90
0000AFA008FFFA00
00002FF30006D100
00000AFB00075000
000003FF400A0000
000000BFC0360000
0000005FF8900000
0000000DFF700000
00000007FF100000
00000001E9000000
0000000083000000
ENDCHAR
STARTCHAR W
ENCODING 87
SWIDTH 1120 0
DWIDTH 20 0
BBX 24 16 -1 -2
BITMAP
00000000000000001B741000
000000000000000003BFFFF5
0000000000000000000DB200
0000072000000000001E1000
0003B8000000000000580000
27BFF6000000000000A20000
123DF90000A4000001900000
0005FE0004FD100007300000
0000EF50098F90000A000000
00009FB0531FF40055000000
00004FF59009FD10A0000000
00000EFF3003FF9560000000
000009FA0000BFFE00000000
000003F300004FF700000000
0000005000000CE100000000
000000000000057000000000
ENDCHAR
STARTCHAR X
ENCODING 88
SWIDTH 868 0
DWIDTH 16 0
BBX 16 15 0 -1
BITMAP
0001247B20000000
EFFFFFF800271000
014AFFF40003FC70
00005FFA0004A110
000006FF30081000
000000AFC1440000
0000001EFB900000
00000009FF700000
0000002BAFC00000
000001B20CF60000
00000B3002ED1000
0015CA00007F8000
5FFFF900001EF400
00138D607FEEFF82
0000001000000244
ENDCHAR
STARTCHAR Y
ENCODING 89
SWIDTH 796 0
DWIDTH 14 0
BBX 16 18 0 -2
BITMAP
00136B5000000000
BFFFD40000095200
04CFD1000006EFFD
001CFA000002B200
0001DF90001A1000
00003EF901B20000
000005FFCD400000
000000AFF9000000
0000001FF2000000
0000000CF0000000
0000000BF1000000
0000000CF1000000
0000000DF2000000
0000000EF3000000
0000002FF4000000
0000019FF7000000
0000AFFFFE300000
0000000137A00000
ENDCHAR
STARTCHAR Z
ENCODING 90
SWIDTH 627 0
DWIDTH 11 0
BBX 12 16 0 -3
BITMAP
0A5200143000
0EFFFFFF5000
0E410CFE1000
18000EF90000
14004FF30000
00008FC00000
0000CF600000
0001FF100000
0005FA000050
000AF5000080
000EE00000C0
004F900002F1
009F40002CF5
00DF469CFFF9
03FEB8521012
013000000000
ENDCHAR
STARTCHAR bracketleft
ENCODING 91
SWIDTH 344 0
DWIDTH 6 0
BBX 6 19 0 -4
BITMAP
04EC94
08F512
0AF000
0CD000
0EB000
1FA000
2F9000
4F8000
5F7000
7F7000
8F6000
9F6000
AF5000
BF5000
BF5000
CF6000
CF7000
BFC100
4CEFE8
ENDCHAR
STARTCHAR backslash
ENCODING 92
SWIDTH 347 0
DWIDTH 6 0
BBX 6 20 0 -3
BITMAP
800000
830000
470000
0A0000
0A0000
064000
028000
00B000
009200
005600
001A00
000B00
000740
000390
0000C0
000092
000057
00001A
000009
000002
ENDCHAR
STARTCHAR bracketright
ENCODING 93
SWIDTH 334 0
DWIDTH 6 0
BBX 6 18 0 -5
BITMAP
000330
19EFB0
023FD0
001FE0
000FF1
000FF2
000EF4
000DF5
000DF6
000CF7
000CF9
000BFA
000BFB
000CFC
000EFB
009C50
4A4000
200000
ENDCHAR
STARTCHAR asciicircum
ENCODING 94
SWIDTH 658 0
DWIDTH 12 0
BBX 11 4 0 10
BITMAP
00002C300000
0004EFE60000
029FB9EFC500
1D930015AEB0
ENDCHAR
STARTCHAR underscore
ENCODING 95
SWIDTH 678 0
DWIDTH 12 0
BBX 11 2 1 -6
BITMAP
2579ABCEEF30
765432111000
ENDCHAR
STARTCHAR grave
ENCODING 96
SWIDTH 278 0
DWIDTH 5 0
BBX 5 4 0 14
BITMAP
1D4000
0AE100
01C900
001B10
ENDCHAR
STARTCHAR a
ENCODING 97
SWIDTH 527 0
DWIDTH 10 0
BBX 11 12 0 -1
BITMAP
019ED8000000
08716F700000
0C400DE00000
0CF60BF30000
05E809F60000
000007F80000
05CEFEFB0000
5F6105FD0000
AF4017FF1000
9FFFFBEF4300
1AED80AF9610
0000002CE900
ENDCHAR
STARTCHAR b
ENCODING 98
SWIDTH 582 0
DWIDTH 10 0
BBX 13 20 -2 0
BITMAP
00007000000000
0003B000000000
026EC000000000
6FFFD000000000
002ED000000000
000BE000000000
000AE000000000
0009F000000000
0008F100000000
0008F200000000
0007F300000000
0006F45CFE7000
0006FA512DF800
0005F70003FF00
0004F80000FF20
0004FA0000EF10
0003FD0003FD00
0004FF712CF500
002BFFFFFC5000
01EA6321000000
ENDCHAR
STARTCHAR c
ENCODING 99
SWIDTH 437 0
DWIDTH 8 0
BBX 8 10 0 1
BITMAP
004CFD70
05A18FF2
1E203EC1
7D000000
AB000000
BD000072
9E100028
5F600038
0CE612B2
019EEB40
ENDCHAR
STARTCHAR d
ENCODING 100
SWIDTH 523 0
DWIDTH 9 0
BBX 10 17 0 1
BITMAP
0000037C20
00009BFF20
000000EF20
000000DF20
000000CF10
000000CF10
000000CF10
000000BF00
000000BF00
000000BF00
03AEFCDE00
2EE511BE00
9F8000AE00
BF6000AD00
AF8000AE00
3FE513DF40
04BEFEDCD8
ENDCHAR
STARTCHAR e
ENCODING 101
SWIDTH 434 0
DWIDTH 8 0
BBX 8 10 0 1
BITMAP
004BED60
05F717F4
1EB002F8
6F7004F6
9F603DE1
AFEFEA20
9F800034
4FC00027
0AFA1194
018DFD60
ENDCHAR
STARTCHAR f
ENCODING 102
SWIDTH 299 0
DWIDTH 5 0
BBX 10 23 -1 -3
BITMAP
000007DD60
00007A13E3
0001D000D6
0005A03BF6
000971FFF3
000C60BE70
000E500000
006F913200
8DFFFD8100
105F900000
003F800000
003F800000
003F900000
003F900000
002FA00000
002FA00000
002FB00000
002FB00000
002FC00000
002FD00000
003FF40000
01AFFFE200
0B83100000
ENDCHAR
STARTCHAR g
ENCODING 103
SWIDTH 567 0
DWIDTH 10 0
BBX 12 17 -1 -7
BITMAP
000000009ED3
0000000629FA
0029DFDC17E6
00CF913EC000
04FF100AF300
04FF000AF200
01DF715FC000
002BFFE91000
004D40000000
0018FFDA5000
005E614AFC10
05F800009F70
0EF200002FA0
2FF200002F80
2FF600006E20
09FE6126D400
007CEEC71000
ENDCHAR
STARTCHAR h
ENCODING 104
SWIDTH 566 0
DWIDTH 10 0
BBX 12 20 -1 -1
BITMAP
000193000000
027DF1000000
3EDFE0000000
000CC0000000
000AB0000000
000AA0000000
000B90000000
000C80000000
000D70000000
000E70000000
000F60000000
001F56DE8000
003F951BF500
004FB006F900
005F6004FA00
007F3004FA00
009F2005FA00
02EF4006FC00
9FFFF55EDDE2
010000210000
ENDCHAR
STARTCHAR i
ENCODING 105
SWIDTH 301 0
DWIDTH 5 0
BBX 6 13 0 2
BITMAP
02EA00
02EA00
000000
015B10
AFFF00
07FD00
03FB00
03FA00
03F900
03F700
04F600
07FA10
9EDEF1
ENDCHAR
STARTCHAR j
ENCODING 106
SWIDTH 367 0
DWIDTH 7 0
BBX 9 20 -2 -9
BITMAP
00002E9000
00003E9000
0011014200
003BFFF800
00006FFB00
000009FD00
000003FF00
000000EF10
000000BF20
0000009F30
0000007F30
0000006F30
0000005F20
0000006F10
2BE8007D00
BFFB009A00
EA5100C500
E00004D000
88115E4000
08DEB30000
ENDCHAR
STARTCHAR k
ENCODING 107
SWIDTH 567 0
DWIDTH 10 0
BBX 12 21 -2 -3
BITMAP
000084000000
026CF4000000
2FEFF4000000
0007F4000000
0003F5000000
0002F5000000
0002F6000000
0001F6000000
0001F7393100
0001F707FFC0
0000F804A200
0000F9390000
0000FCE60000
0000FCDA0034
0000EB8F1009
0000ED2F8009
0000EE08F61A
0000EF108ED5
0004FF600000
039DCCDE8000
001000000000
ENDCHAR
STARTCHAR l
ENCODING 108
SWIDTH 354 0
DWIDTH 6 0
BBX 8 17 -1 -1
BITMAP
00009000
002CD000
28EFD000
B99FE000
002FE000
000FF000
000DF100
000BF100
000AF200
0008F300
0007F400
0005F500
0004F600
0003F700
0005FC20
00DFFFF3
00210010
ENDCHAR
STARTCHAR m
ENCODING 109
SWIDTH 708 0
DWIDTH 13 0
BBX 13 8 0 2
BITMAP
00650000000000
4BF98EC29FC200
01FE35FB18F700
00DC01F803F900
00BB04F804F800
00CD2EFF28F700
3EFFA1133BF700
01012100002930
ENDCHAR
STARTCHAR n
ENCODING 110
SWIDTH 584 0
DWIDTH 11 0
BBX 11 12 0 0
BITMAP
008400000000
29F706DE8000
34FA541CF500
00EC6005F900
00BF5002FA00
008F3002FA00
005F2002F800
003F2003F600
001F4008F500
001F82FFF400
07FFF6138A10
011022000230
ENDCHAR
STARTCHAR o
ENCODING 111
SWIDTH 503 0
DWIDTH 9 0
BBX 9 8 0 1
BITMAP
007DFE9100
0BF615EC00
5FC0008F60
9FA0004FA0
9FB0002FA0
5FE1003F60
0AFB22BC00
007DFD8100
ENDCHAR
STARTCHAR p
ENCODING 112
SWIDTH 509 0
DWIDTH 9 0
BBX 9 18 0 -8
BITMAP
0019000000
05DC5DE900
6BFE719F70
00DE002FC0
00CB000FD0
00CA001FC0
00CC004F70
00CF41CE10
00DECFC300
00DE000000
00DE000000
00EE000000
00EE000000
00FF000000
01FF100000
05FF500000
5EFFF60000
0002450000
ENDCHAR
STARTCHAR q
ENCODING 113
SWIDTH 505 0
DWIDTH 9 0
BBX 10 18 0 -8
BITMAP
0000000010
05CFD8FB20
4FC218F500
AF5004F500
AF6004F500
6FD319F400
07EFC9F400
000006F400
000006F400
000006F400
000006F400
000007F400
000007F400
000007F400
000009F500
000BFFFB10
0000137CE1
0000000010
ENDCHAR
STARTCHAR r
ENCODING 114
SWIDTH 414 0
DWIDTH 7 0
BBX 9 12 0 0
BITMAP
000009EB10
0285861A70
9FF6809F70
04FD40CD20
01FF100000
00EF100000
00DF200000
00BF400000
00AF600000
009FB00000
02CFFF3000
3D73100000
ENDCHAR
STARTCHAR s
ENCODING 115
SWIDTH 482 0
DWIDTH 9 0
BBX 10 14 -1 -2
BITMAP
0000000040
00007DE890
0006F41980
0009D00360
0007F40230
0000CE3000
00001DE400
000002EF40
0007003FE1
002A0009F7
00B80005FA
09CA0006F8
1108613DE2
00006DEB30
ENDCHAR
STARTCHAR t
ENCODING 116
SWIDTH 434 0
DWIDTH 8 0
BBX 8 14 0 0
BITMAP
00008400
0001E300
0007E000
016FC000
7EFFFE90
00EF9100
02FE0000
06FA0000
08F70000
0AF50000
0AF501D6
07F800A8
01EE4184
003BFD60
ENDCHAR
STARTCHAR u
ENCODING 117
SWIDTH 744 0
DWIDTH 13 0
BBX 14 10 0 0
BITMAP
000000014A5000
0019006EFF7000
04DF00005F8000
9CFF30001F9000
008F60001FB000
005FA0003FC000
003FE1007BF100
000EF913B7FEE5
0008FFFF526310
00019EE7000000
ENDCHAR
STARTCHAR v
ENCODING 118
SWIDTH 600 0
DWIDTH 11 0
BBX 11 11 0 0
BITMAP
000690000000
38EF50000010
31DF901EEE70
006FD000C200
000DF4009000
0007FA026000
0001EE161000
00008F770000
00001FE60000
000008F10000
000001900000
ENDCHAR
STARTCHAR w
ENCODING 119
SWIDTH 745 0
DWIDTH 13 0
BBX 14 9 0 0
BITMAP
00025000004AD5
049E100B102D30
CFFF204FA05700
03FF609FF49200
00BFB179FEB000
006FFA11DF6000
001EFA003C1000
0008F400000000
0001A000000000
ENDCHAR
STARTCHAR x
ENCODING 120
SWIDTH 548 0
DWIDTH 10 0
BBX 12 11 -1 0
BITMAP
000259D00000
1FFFFD131000
004DFC09FFC1
0003FF21A200
00009F881000
00002EF40000
000009F70000
00002EFD0000
0015B2BF8100
00D9817FFF40
00000A930000
ENDCHAR
STARTCHAR y
ENCODING 121
SWIDTH 659 0
DWIDTH 12 0
BBX 12 17 0 -8
BITMAP
0003B5000023
14AF704EEFF7
AFFB0002DFC0
07FB00007FA0
04FC00007F90
01FF10008F80
00AF6000BF60
002FE4177F40
0004CFC46F20
000000007E00
000000009A00
00000000B600
003CE401E100
0069FA06A000
0073E61D3000
00B403D60000
003CFC400000
ENDCHAR
STARTCHAR z
ENCODING 122
SWIDTH 460 0
DWIDTH 8 0
BBX 9 11 0 0
BITMAP
6D84100000
7FEDEFF200
86001EA000
70008F2000
0002FA0000
000BF30000
005FA00000
01DF300240
09FB013B40
4FFFFFFF30
3421000000
ENDCHAR
STARTCHAR braceleft
ENCODING 123
SWIDTH 460 0
DWIDTH 8 0
BBX 9 23 0 -6
BITMAP
00007EE800
0005F30000
000AD00000
000CD00000
000CF10000
000AF40000
0008F70000
0007F90000
0009F80000
003FF30000
49FE500000
3A80000000
006A000000
000C800000
0008E00000
0008F30000
0009F40000
000AF50000
000BF50000
000BF50000
000AF70410
0005FC1800
00008EE600
ENDCHAR
STARTCHAR bar
ENCODING 124
SWIDTH 368 0
DWIDTH 7 0
BBX 2 19 2 -3
BITMAP
35
45
46
36
36
27
27
28
18
09
09
09
09
09
08
08
09
09
07
ENDCHAR
STARTCHAR braceright
ENCODING 125
SWIDTH 476 0
DWIDTH 9 0
BBX 9 19 0 -5
BITMAP
07EE910000
661DF90000
8008FE0000
0005FF0000
0003FF0000
0001EF0000
00008F1000
0000059A20
000001D500
000006F200
000006F400
000003F800
000000ED00
000000BF10
0000008F20
0000007F20
0000009C00
000027E300
0006EA2000
ENDCHAR
STARTCHAR asciitilde
ENCODING 126
SWIDTH 733 0
DWIDTH 13 0
BBX 12 4 1 3
BITMAP
000000000064
06DFC84117E0
5515CFFFFF50
500005BED600
ENDCHAR
STARTCHAR nonbreakingspace
ENCODING 160
SWIDTH 270 0
DWIDTH 5 0
BBX 1 1 0 0
BITMAP
00
ENDCHAR
STARTCHAR exclamdown
ENCODING 161
SWIDTH 247 0
DWIDTH 4 0
BBX 3 19 1 -2
BITMAP
CD20
DD10
0000
0000
1300
3900
3C00
4D00
4F00
5F10
6F30
8F40
9F50
BF60
CF70
EF80
FF80
EF60
9D20
ENDCHAR
STARTCHAR cent
ENCODING 162
SWIDTH 799 0
DWIDTH 14 0
BBX 10 16 2 -5
BITMAP
0005100000
0003400000
0004EFE800
007FA12BA0
04F96008F1
0BF2521EF3
0EF0161DC0
1FF0070000
0EF2080024
09F8053071
01DF827660
0019DFE600
0000008200
0000003600
0000000900
0000000100
ENDCHAR
STARTCHAR sterling
ENCODING 163
SWIDTH 799 0
DWIDTH 14 0
BBX 11 16 2 -2
BITMAP
0002AEEA1000
002E911CB000
00AD003EF000
01FB00EFE000
02FD00BE6000
02FF10000000
00EF60000000
01BFD6610000
476FF5000000
000BFC000000
0004FF100000
0000DF400000
0000AF300520
07EEEF100070
2913DD930550
0BFE907DEA00
ENDCHAR
STARTCHAR currency
ENCODING 164
SWIDTH 732 0
DWIDTH 13 0
BBX 11 13 1 0
BITMAP
000000062000
3000003C0000
785BEFFC1000
0CC3013AB000
2C000000B300
760000007500
850000008300
78000002B000
2E82027E3000
05FFFD96B100
07B000003B30
0D4000000170
060000000000
ENDCHAR
STARTCHAR yen
ENCODING 165
SWIDTH 799 0
DWIDTH 14 0
BBX 14 20 0 -3
BITMAP
00001492000003
3DFFFF500137C7
006EFF302FFD20
0005FF8000A300
00009FE1008000
00001EF8052000
000008FF280000
000001EFE70000
0000009FF40000
0000004FF20000
0003DDEFFEEFF4
0000112FF00000
0000014FFEF900
000099AFE20000
0000002FD00000
0000003FE00000
0000005FF61000
000004DFFFE100
0001EC74210000
00002000000000
ENDCHAR
STARTCHAR brokenbar
ENCODING 166
SWIDTH 341 0
DWIDTH 6 0
BBX 2 21 2 -5
BITMAP
34
45
45
45
46
46
46
24
00
00
35
36
36
27
27
37
37
46
46
46
45
ENDCHAR
STARTCHAR section
ENCODING 167
SWIDTH 546 0
DWIDTH 10 0
BBX 9 21 0 -6
BITMAP
0005CFD700
006E305F70
01E8004FD0
03F8005E80
03FE200000
00DFD20000
008FFE4000
05B4DFF600
0D6018FF40
1F90003EB0
0EF50006E0
07FF8003B0
008FFC2830
0004DFE600
000018FB00
0000005F40
0000000970
0000000470
002EA00450
004FF61800
0009EE9100
ENDCHAR
STARTCHAR dieresis
ENCODING 168
SWIDTH 393 0
DWIDTH 7 0
BBX 5 2 1 12
BITMAP
1D89B0
2E7AA0
ENDCHAR
STARTCHAR copyright
ENCODING 169
SWIDTH 1023 0
DWIDTH 18 0
BBX 18 16 0 -3
BITMAP
0000038CEFEB720000
0001AC731035AE8000
001C7000005002BA00
00A6006CEE70001C70
04A007F517700002E0
09400EA000600000B4
0C003F800010000086
0B003F800004000077
1A001ED00026000086
0B0006FA21A10000A4
0B00005DFC400001D0
085000000000000780
01D100000000003D10
005C3000000006D300
0004D9410137CC2000
000017BEFEC9400000
ENDCHAR
STARTCHAR ordfeminine
ENCODING 170
SWIDTH 558 0
DWIDTH 10 0
BBX 10 9 0 6
BITMAP
02BEC30000
0C818E1000
1F901F5000
0DB00F7000
007DFF8000
08E41D9061
0D900DA062
0CB15CE291
04DE91CE70
ENDCHAR
STARTCHAR guillemotleft
ENCODING 171
SWIDTH 608 0
DWIDTH 11 0
BBX 9 17 1 -5
BITMAP
0000000020
0000000070
0000040280
0000290750
0000B40C10
0008B03C00
01AF31C800
3DF70AF600
EFF20CFC00
3EFA01DF40
03EF403F90
003ED00AC0
0004F602E0
00007D00B0
00000B6040
000002B000
0000002000
ENDCHAR
STARTCHAR logicalnot
ENCODING 172
SWIDTH 616 0
DWIDTH 11 0
BBX 11 5 0 4
BITMAP
000000111000
1EFEDDCBCF10
000000000C30
000000000B10
000000000800
ENDCHAR
STARTCHAR uni00AD
ENCODING 173
SWIDTH 436 0
DWIDTH 8 0
BBX 6 2 1 3
BITMAP
310012
9DFFEA
ENDCHAR
STARTCHAR registered
ENCODING 174
SWIDTH 1048 0
DWIDTH 19 0
BBX 18 17 0 -4
BITMAP
0000017BEFDC720000
00008D8410137C8100
001B91000000005A00
009800000000000390
03B03EEFFFD6000073
094002DD12DF300018
0C0000AB007F600007
0C00009B009F300007
1C00009C27F9000007
1D00009FFF70042007
0E1000BD4F90026008
0A6004EF49F7164017
05C0BECDEA7DEA0082
00B900000300000480
001C91000000006B00
00019E8420137C9000
0000038CEFEC820000
ENDCHAR
STARTCHAR macron
ENCODING 175
SWIDTH 382 0
DWIDTH 7 0
BBX 5 1 1 14
BITMAP
ADEFC0
ENDCHAR
STARTCHAR degree
ENCODING 176
SWIDTH 346 0
DWIDTH 6 0
BBX 5 4 1 13
BITMAP
5DE800
C21B30
C21B30
6EE800
ENDCHAR
STARTCHAR plusminus
ENCODING 177
SWIDTH 580 0
DWIDTH 10 0
BBX 9 7 1 3
BITMAP
0000500000
0000C00000
0002C00000
8FEDECBB40
0000700000
0000600000
DEDCCBA200
ENDCHAR
STARTCHAR twosuperior
ENCODING 178
SWIDTH 365 0
DWIDTH 7 0
BBX 7 10 0 6
BITMAP
009ED300
0533EC00
0000CE00
0000DB00
0006E200
006A2000
4D600110
06E86700
004FC000
00052000
ENDCHAR
STARTCHAR threesuperior
ENCODING 179
SWIDTH 371 0
DWIDTH 7 0
BBX 7 10 0 7
BITMAP
01011000
1FFF6000
061B0000
00761000
004BE500
1000BE10
60006F40
80008F30
5813EC00
07EEA100
ENDCHAR
STARTCHAR acute
ENCODING 180
SWIDTH 234 0
DWIDTH 4 0
BBX 3 4 1 14
BITMAP
0A40
4E00
B500
9000
ENDCHAR
STARTCHAR mu
ENCODING 181
SWIDTH 634 0
DWIDTH 11 0
BBX 12 17 0 -7
BITMAP
001000000000
3F6000020000
4F5000AF3000
4F50007F4000
3F70004F6000
3FA0003F7000
2FE1004F9080
2FDB12BCB045
1F97DE45F455
1FA000007EB1
0FB000000000
0FD000000000
0EE000000000
0EF100000000
0DF300000000
0CF400000000
010000000000
ENDCHAR
STARTCHAR paragraph
ENCODING 182
SWIDTH 707 0
DWIDTH 13 0
BBX 13 23 0 -7
BITMAP
00000000000410
0000000147C500
0059BDEFFF4000
1CFFFD10AD0000
9FFFFA009B0000
EFFFF900990000
EFFFF900A80000
BFFFF800A80000
3FFFF800B80000
03BFF800B80000
0005F800B90000
0000F900C90000
0000E900CA0000
0000DA00CB0000
0000CB00DD0000
0000BC00DF0000
0000AD00DF3000
0000AE00DFB200
0000AF00CFDE90
0000BF00100000
0001EF10000000
004CFC10000000
0BB51000000000
ENDCHAR
STARTCHAR periodcentered
ENCODING 183
SWIDTH 238 0
DWIDTH 4 0
BBX 4 3 0 5
BITMAP
0BE2
1FF6
0BD2
ENDCHAR
STARTCHAR cedilla
ENCODING 184
SWIDTH 332 0
DWIDTH 6 0
BBX 4 6 1 -4
BITMAP
0320
0820
09F7
009F
819E
6ED4
ENDCHAR
STARTCHAR onesuperior
ENCODING 185
SWIDTH 336 0
DWIDTH 6 0
BBX 6 8 0 8
BITMAP
000270
003D60
056F50
000E40
000F50
004F60
6BEFB0
0358C8
ENDCHAR
STARTCHAR ordmasculine
ENCODING 186
SWIDTH 503 0
DWIDTH 9 0
BBX 9 8 0 6
BITMAP
007DFD6000
0A403AF900
3900009F30
6900001F70
5C00000C60
2F60000D40
08F8216B00
006CFE9100
ENDCHAR
STARTCHAR guillemotright
ENCODING 187
SWIDTH 778 0
DWIDTH 14 0
BBX 12 17 1 -5
BITMAP
000030000000
000027000000
60000B400000
B20002D30000
5D30005E5000
09F82005F910
009FFB624EE6
0005EFE53EFB
0001DD23EF70
000BC11DE400
008C109E3000
03E202F60000
0A5009B00000
1A000E400000
42001D000000
000028000000
000013000000
ENDCHAR
STARTCHAR onequarter
ENCODING 188
SWIDTH 876 0
DWIDTH 16 0
BBX 16 18 0 -1
BITMAP
0000000000003300
000270000001A000
003D600000093000
056F500000580000
000E400002B00000
000F50000B300000
004F600086080000
6BEFB004A03E0000
0358C81C10BF1000
000000A4059F3000
00000680072F5130
00002B00610E8A40
0000B202DBDFFF50
00085001321CE000
00490000000DF910
01B1000001DFFEF5
0730000001420000
0100000000000000
ENDCHAR
STARTCHAR onehalf
ENCODING 189
SWIDTH 762 0
DWIDTH 14 0
BBX 14 18 0 -1
BITMAP
00000000000033
000270000001A0
003D6000000930
056F5000005800
000E400002B000
000F50000B3000
004F6000860000
6BEFB004A00000
0358C81C19ED30
000000A4533FC0
00000680000CE0
00002B00000EA0
0000B200006E20
0008500006A200
00490004D60011
01B100006E8670
0730000004FC00
01000000005200
ENDCHAR
STARTCHAR threequarters
ENCODING 190
SWIDTH 922 0
DWIDTH 17 0
BBX 17 18 0 -1
BITMAP
010110000000023000
1FFF600000001A0000
061B00000000940000
007610000005800000
004BE500002C000000
1000BE1000B3000000
60006F400870700000
80008F304B05C00000
5813EC01C10DE00000
07EEA10A4069F00000
000000680164F23100
000002B00702F6B200
00000B204DCEFFF300
000085001321EC0000
000390000001FF7100
001B1000003DFEEF30
007300000014100000
001000000000000000
ENDCHAR
STARTCHAR questiondown
ENCODING 191
SWIDTH 571 0
DWIDTH 10 0
BBX 10 16 0 -2
BITMAP
00007E8000
0000DFE000
00008E8000
0000000000
0000370000
0000081000
00000A0000
0001A70000
003DB00000
04EF21CEB2
1EF904FFFB
6FF6008EFE
8FF50002DC
6FFA0000B8
0CFF8116C1
017CEFD810
ENDCHAR
STARTCHAR Agrave
ENCODING 192
SWIDTH 784 0
DWIDTH 14 0
BBX 15 22 0 -2
BITMAP
002D300000000000
000CD00000000000
0001D70000000000
00002B0000000000
0000000000000000
0000149B00000000
000DEEFF20000000
000007EF70000000
0000094FC0000000
00000A0EF2000000
0000360AF7000000
00008205FC000000
0000C402FF300000
0003CCEBFF800000
00085027EFD00000
000C00006FF30000
004900001EF90000
01C500000AFE0000
EFF9000005FF5000
026C700001FFD300
0000000015FFFF50
00000000B9410000
ENDCHAR
STARTCHAR Aacute
ENCODING 193
SWIDTH 784 0
DWIDTH 14 0
BBX 15 22 0 -2
BITMAP
0000001C10000000
0000007B00000000
000000D300000000
0000036000000000
0000000000000000
0000149B00000000
000DEEFF20000000
000007EF70000000
0000094FC0000000
00000A0EF2000000
0000360AF7000000
00008205FC000000
0000C402FF300000
0003CCEBFF800000
00085027EFD00000
000C00006FF30000
004900001EF90000
01C500000AFE0000
EFF9000005FF5000
026C700001FFD300
0000000015FFFF50
00000000B9410000
ENDCHAR
STARTCHAR Acircumflex
ENCODING 194
SWIDTH 784 0
DWIDTH 14 0
BBX 15 21 0 -2
BITMAP
000000A400000000
000006BE30000000
00004806E6000000
000350005D300000
0000149B00000000
000DEEFF20000000
000007EF70000000
0000094FC0000000
00000A0EF2000000
0000360AF7000000
00008205FC000000
0000C402FF300000
0003CCEBFF800000
00085027EFD00000
000C00006FF30000
004900001EF90000
01C500000AFE0000
EFF9000005FF5000
026C700001FFD300
0000000015FFFF50
00000000B9410000
ENDCHAR
STARTCHAR Atilde
ENCODING 195
SWIDTH 784 0
DWIDTH 14 0
BBX 15 21 0 -2
BITMAP
0002CE8200000000
00051AFFF5000000
0000007EC1000000
0000000000000000
0000149B00000000
000DEEFF20000000
000007EF70000000
0000094FC0000000
00000A0EF2000000
0000360AF7000000
00008205FC000000
0000C402FF300000
0003CCEBFF800000
00085027EFD00000
000C00006FF30000
004900001EF90000
01C500000AFE0000
EFF9000005FF5000
026C700001FFD300
0000000015FFFF50
00000000B9410000
ENDCHAR
STARTCHAR Adieresis
ENCODING 196
SWIDTH 784 0
DWIDTH 14 0
BBX 15 21 0 -2
BITMAP
00008E3000000000
0000EF66E3000000
00009E27E2000000
0000000000000000
0000149B00000000
000DEEFF20000000
000007EF70000000
0000094FC0000000
00000A0EF2000000
0000360AF7000000
00008205FC000000
0000C402FF300000
0003CCEBFF800000
00085027EFD00000
000C00006FF30000
004900001EF90000
01C500000AFE0000
EFF9000005FF5000
026C700001FFD300
0000000015FFFF50
00000000B9410000
ENDCHAR
STARTCHAR Aring
ENCODING 197
SWIDTH 784 0
DWIDTH 14 0
BBX 15 22 0 -2
BITMAP
000006EC20000000
00002C14A0000000
00004700A0000000
00002C1490000000
000008EC10000000
0000149B00000000
000DEEFF20000000
000007EF70000000
0000094FC0000000
00000A0EF2000000
0000360AF7000000
00008205FC000000
0000C402FF300000
0003CCEBFF800000
00085027EFD00000
000C00006FF30000
004900001EF90000
01C500000AFE0000
EFF9000005FF5000
026C700001FFD300
0000000015FFFF50
00000000B9410000
ENDCHAR
STARTCHAR AE
ENCODING 198
SWIDTH 1172 0
DWIDTH 21 0
BBX 21 18 0 -3
BITMAP
0000000000000016BB0000
0000000002369CFDDB0000
0000001EFFFFE510190000
00000000288FB000060000
00000000072FC000030000
00000000060FE000300000
00000000320EF200800000
00000000600DF527C00000
00000002500CFFEDD00000
00000008001DF900A00060
0000001EEFEFFB00520280
000000861009FE000006A0
000002A00007FF30002DC0
000009300006FF7017EFD0
00003A000006FFECA63000
0001D3000009FB50000000
026EE100006B4000000000
DEDCDE7003400000000000
ENDCHAR
STARTCHAR Ccedilla
ENCODING 199
SWIDTH 742 0
DWIDTH 13 0
BBX 14 22 0 -7
BITMAP
00000000000600
00000000000800
00000000000B00
00039DEFDCDE00
008FD51127EF10
08FD1000002D40
2FF50000000370
8FF00000000000
CFC00000000000
DFC00000000000
DFC00000000042
CFF00000000062
8FF50000000080
2FFC0000000190
07FF8000000930
007FFB4114B600
00028CEFDA3000
00000007000000
0000002E800000
00000003F70000
00000532E80000
000001BEB10000
ENDCHAR
STARTCHAR Egrave
ENCODING 200
SWIDTH 557 0
DWIDTH 10 0
BBX 10 22 0 -2
BITMAP
06C1000000
02E9000000
004E300000
0004800000
0000000000
5544579CE0
2DFF5210A0
06FF100060
03FF200000
00FF200000
00DF301000
00BF407000
00AFFEA000
008F539000
007F607000
005F701000
004F800000
002F900003
001FA00008
003FD0005D
8FFFFECEFB
0001234673
ENDCHAR
STARTCHAR Eacute
ENCODING 201
SWIDTH 557 0
DWIDTH 10 0
BBX 10 22 0 -2
BITMAP
000001C100
000007B000
00000D3000
0000360000
0000000000
5544579CE0
2DFF5210A0
06FF100060
03FF200000
00FF200000
00DF301000
00BF407000
00AFFEA000
008F539000
007F607000
005F701000
004F800000
002F900003
001FA00008
003FD0005D
8FFFFECEFB
0001234673
ENDCHAR
STARTCHAR Ecircumflex
ENCODING 202
SWIDTH 557 0
DWIDTH 10 0
BBX 10 22 0 -2
BITMAP
0000680000
0003BE6000
002913E800
0160003B70
0000000000
5544579CE0
2DFF5210A0
06FF100060
03FF200000
00FF200000
00DF301000
00BF407000
00AFFEA000
008F539000
007F607000
005F701000
004F800000
002F900003
001FA00008
003FD0005D
8FFFFECEFB
0001234673
ENDCHAR
STARTCHAR Edieresis
ENCODING 203
SWIDTH 557 0
DWIDTH 10 0
BBX 10 21 0 -2
BITMAP
006E500000
00BF94E500
006E44E400
0000000000
5544579CE0
2DFF5210A0
06FF100060
03FF200000
00FF200000
00DF301000
00BF407000
00AFFEA000
008F539000
007F607000
005F701000
004F800000
002F900003
001FA00008
003FD0005D
8FFFFECEFB
0001234673
ENDCHAR
STARTCHAR Igrave
ENCODING 204
SWIDTH 438 0
DWIDTH 8 0
BBX 10 25 -1 -4
BITMAP
005C100000
001EA00000
0003E40000
0000390000
0000000000
0000000000
3CBAAACDFC
026EFFC300
000AFF3000
0008FE0000
0007FC0000
0007FA0000
0007F80000
0007F60000
0006F50000
0006F40000
0007F20000
0007F10000
0007F00000
0007F00000
0008F00000
000BF40000
019FFFF300
7C84100000
2000000000
ENDCHAR
STARTCHAR Iacute
ENCODING 205
SWIDTH 438 0
DWIDTH 8 0
BBX 10 24 -1 -4
BITMAP
0000003B00
000000B700
000002D100
0000063000
0000000000
3CBAAACDFC
026EFFC300
000AFF3000
0008FE0000
0007FC0000
0007FA0000
0007F80000
0007F60000
0006F50000
0006F40000
0007F20000
0007F10000
0007F00000
0007F00000
0008F00000
000BF40000
019FFFF300
7C84100000
2000000000
ENDCHAR
STARTCHAR Icircumflex
ENCODING 206
SWIDTH 438 0
DWIDTH 8 0
BBX 10 24 -1 -4
BITMAP
00001C1000
0000ABC100
000840BD30
00530008C0
0000000000
3CBAAACDFC
026EFFC300
000AFF3000
0008FE0000
0007FC0000
0007FA0000
0007F80000
0007F60000
0006F50000
0006F40000
0007F20000
0007F10000
0007F00000
0007F00000
0008F00000
000BF40000
019FFFF300
7C84100000
2000000000
ENDCHAR
STARTCHAR Idieresis
ENCODING 207
SWIDTH 438 0
DWIDTH 8 0
BBX 10 23 -1 -4
BITMAP
003E900000
007FD1D900
003E81E800
0000000000
3CBAAACDFC
026EFFC300
000AFF3000
0008FE0000
0007FC0000
0007FA0000
0007F80000
0007F60000
0006F50000
0006F40000
0007F20000
0007F10000
0007F00000
0007F00000
0008F00000
000BF40000
019FFFF300
7C84100000
2000000000
ENDCHAR
STARTCHAR Eth
ENCODING 208
SWIDTH 730 0
DWIDTH 13 0
BBX 14 15 0 -4
BITMAP
199ABDFED92000
169FD115DFF700
002FC0001DFF50
001FC00005FFD0
002FC00001FFF3
002FC22000DFF5
5BEFFC4000DFF5
334FC00000EFF3
003FD00002FFC0
004FD00007FF50
005FE0002EF700
007FF416ED4000
00BFFFC9400000
08B62000000000
73000000000000
ENDCHAR
STARTCHAR Ntilde
ENCODING 209
SWIDTH 799 0
DWIDTH 14 0
BBX 15 21 0 -4
BITMAP
0000009EA4000000
00000236FFFA0000
000000004DE40000
0012100000001420
DFFFD1000EEFFC30
01CFFC10004F6000
008CFFC1000C1000
00649FFA000A0000
00640CFF90090000
005402EFF7090000
0054004FFF8B0000
00540007FFFD0000
00540000AFFC0000
004400001CFC0000
0044000002DB0000
0055000000390000
0055000000000000
0087000000000000
03EC000000000000
BEEFC40000000000
0002650000000000
ENDCHAR
STARTCHAR Ograve
ENCODING 210
SWIDTH 747 0
DWIDTH 13 0
BBX 14 19 0 0
BITMAP
000B7000000000
0006F400000000
00009C00000000
00000840000000
00000000000000
00000000000000
0005BEFEB60000
01BE6114CFD200
0AF400000BFD20
4FB0000002FFA0
AF70000000AFF1
CF500000007FF4
DF600000005FF5
CF700000004FF3
9FB00000005FF1
4FF20000008FA0
0AFC000001EE20
01BFC4114DE300
0005ADFEC71000
ENDCHAR
STARTCHAR Oacute
ENCODING 211
SWIDTH 747 0
DWIDTH 13 0
BBX 14 19 0 0
BITMAP
0000001C100000
0000007B000000
000000D3000000
00000360000000
00000000000000
00000000000000
0005BEFEB60000
01BE6114CFD200
0AF400000BFD20
4FB0000002FFA0
AF70000000AFF1
CF500000007FF4
DF600000005FF5
CF700000004FF3
9FB00000005FF1
4FF20000008FA0
0AFC000001EE20
01BFC4114DE300
0005ADFEC71000
ENDCHAR
STARTCHAR Ocircumflex
ENCODING 212
SWIDTH 747 0
DWIDTH 13 0
BBX 14 19 0 0
BITMAP
000004A0000000
00001BD9000000
0001922DA10000
00071001A90000
00000000000000
00000000000000
0005BEFEB60000
01BE6114CFD200
0AF400000BFD20
4FB0000002FFA0
AF70000000AFF1
CF500000007FF4
DF600000005FF5
CF700000004FF3
9FB00000005FF1
4FF20000008FA0
0AFC000001EE20
01BFC4114DE300
0005ADFEC71000
ENDCHAR
STARTCHAR Otilde
ENCODING 213
SWIDTH 747 0
DWIDTH 13 0
BBX 14 18 0 0
BITMAP
00009EA4000000
000245FFFA0000
0000004DE40000
00000000000000
00000000000000
0005BEFEB60000
01BE6114CFD200
0AF400000BFD20
4FB0000002FFA0
AF70000000AFF1
CF500000007FF4
DF600000005FF5
CF700000004FF3
9FB00000005FF1
4FF20000008FA0
0AFC000001EE20
01BFC4114DE300
0005ADFEC71000
ENDCHAR
STARTCHAR Odieresis
ENCODING 214
SWIDTH 747 0
DWIDTH 13 0
BBX 14 19 0 0
BITMAP
0000BD10000000
0001FF49E10000
0000BD19D00000
00000000000000
00000000000000
00000000000000
0005BEFEB60000
01BE6114CFD200
0AF400000BFD20
4FB0000002FFA0
AF70000000AFF1
CF500000007FF4
DF600000005FF5
CF700000004FF3
9FB00000005FF1
4FF20000008FA0
0AFC000001EE20
01BFC4114DE300
0005ADFEC71000
ENDCHAR
STARTCHAR multiply
ENCODING 215
SWIDTH 541 0
DWIDTH 10 0
BBX 9 11 0 0
BITMAP
0000000050
0000000950
0120005800
00A4029000
001B7A1000
0001FA0000
000764B200
0039002700
01C1000000
0A50000000
1700000000
ENDCHAR
STARTCHAR Oslash
ENCODING 216
SWIDTH 747 0
DWIDTH 13 0
BBX 14 17 0 -2
BITMAP
00000000000090
00000000000930
0005BEFEB55800
01BE6114BFF300
0AF400000CFD10
4FB000005AFF90
AF700003B0AFF1
CF50001C207FF4
DF5000B3004FF5
CF700960004FF3
9FB06800005FF1
4FF5A000008FA0
0BFE100001EE20
01CFC4114DE300
02A4ADEEC71000
0A100000000000
13000000000000
ENDCHAR
STARTCHAR Ugrave
ENCODING 217
SWIDTH 690 0
DWIDTH 12 0
BBX 14 19 0 1
BITMAP
00001D30000000
00000BD1000000
000001C8000000
0000001B000000
00000000000000
00000277000000
0358CFA2000000
EFFFFA00000000
05FFF20DECCDB4
00DFE0003AF500
00CFC00000E100
00BFB00000C000
00BFB00000A000
009FC000009000
007FE000009000
004FF200008000
000DF800045000
0003FF513B0000
00003BEEA10000
ENDCHAR
STARTCHAR Uacute
ENCODING 218
SWIDTH 690 0
DWIDTH 12 0
BBX 14 17 0 1
BITMAP
00000000006700
0000000001E300
00000000079000
00000277091000
0358CFA2000000
EFFFFA00000000
05FFF20DECCDB4
00DFE0003AF500
00CFC00000E100
00BFB00000C000
00BFB00000A000
009FC000009000
007FE000009000
004FF200008000
000DF800045000
0003FF513B0000
00003BEEA10000
ENDCHAR
STARTCHAR Ucircumflex
ENCODING 219
SWIDTH 690 0
DWIDTH 12 0
BBX 14 18 0 1
BITMAP
0000001C100000
000000ABC10000
00000750AD3000
0000530007D000
00000277000000
0358CFA2000000
EFFFFA00000000
05FFF20DECCDB4
00DFE0003AF500
00CFC00000E100
00BFB00000C000
00BFB00000A000
009FC000009000
007FE000009000
004FF200008000
000DF800045000
0003FF513B0000
00003BEEA10000
ENDCHAR
STARTCHAR Udieresis
ENCODING 220
SWIDTH 690 0
DWIDTH 12 0
BBX 14 18 0 1
BITMAP
00000BD1000000
00001FF49E1000
00000BD19D0000
00000000000000
00000277000000
0358CFA2000000
EFFFFA00000000
05FFF20DECCDB4
00DFE0003AF500
00CFC00000E100
00BFB00000C000
00BFB00000A000
009FC000009000
007FE000009000
004FF200008000
000DF800045000
0003FF513B0000
00003BEEA10000
ENDCHAR
STARTCHAR Yacute
ENCODING 221
SWIDTH 796 0
DWIDTH 14 0
BBX 16 22 0 -2
BITMAP
0000000000760000
0000000002E20000
0000000008800000
0000000009000000
00136B5000000000
BFFFD40000095200
04CFD1000006EFFD
001CFA000002B200
0001DF90001A1000
00003EF901B20000
000005FFCD400000
000000AFF9000000
0000001FF2000000
0000000CF0000000
0000000BF1000000
0000000CF1000000
0000000DF2000000
0000000EF3000000
0000002FF4000000
0000019FF7000000
0000AFFFFE300000
0000000137A00000
ENDCHAR
STARTCHAR Thorn
ENCODING 222
SWIDTH 479 0
DWIDTH 9 0
BBX 9 19 0 -2
BITMAP
5FFFF70000
04FE300000
00CC000000
00CC100000
00CFFFC600
00CC14EF60
00C7008FD0
00D7005FF0
00D8006FD0
00E903DF60
00EDDFD700
00F9000000
00F9000000
01F9000000
02F9000000
03FA000000
09FD100000
5FFFC20000
1101320000
ENDCHAR
STARTCHAR germandbls
ENCODING 223
SWIDTH 591 0
DWIDTH 11 0
BBX 12 20 -1 -3
BITMAP
007EEA100000
05B13DB00000
0A3006F20000
0D1003F40000
0D2004F20000
0D4006C00000
0C600A300000
0A9033000000
08D5EFDA4000
06F114BFFA00
03F50006FF90
01F900008FF1
00DE00001EF4
00AF300009F5
007F800005F5
005FC1D603F2
005FF5FE2890
01CD829EE800
1A4000000000
100000000000
ENDCHAR
STARTCHAR agrave
ENCODING 224
SWIDTH 527 0
DWIDTH 10 0
BBX 11 17 0 -1
BITMAP
5C1000000000
2E9000000000
04E300000000
004800000000
000000000000
019ED8000000
08716F700000
0C400DE00000
0CF60BF30000
05E809F60000
000007F80000
05CEFEFB0000
5F6105FD0000
AF4017FF1000
9FFFFBEF4300
1AED80AF9610
0000002CE900
ENDCHAR
STARTCHAR aacute
ENCODING 225
SWIDTH 527 0
DWIDTH 10 0
BBX 11 17 0 -1
BITMAP
000008500000
00003E100000
000097000000
000090000000
000000000000
019ED8000000
08716F700000
0C400DE00000
0CF60BF30000
05E809F60000
000007F80000
05CEFEFB0000
5F6105FD0000
AF4017FF1000
9FFFFBEF4300
1AED80AF9610
0000002CE900
ENDCHAR
STARTCHAR acircumflex
ENCODING 226
SWIDTH 527 0
DWIDTH 10 0
BBX 11 16 0 -1
BITMAP
0003B0000000
001BCA000000
00921DB10000
062001AA0000
019ED8000000
08716F700000
0C400DE00000
0CF60BF30000
05E809F60000
000007F80000
05CEFEFB0000
5F6105FD0000
AF4017FF1000
9FFFFBEF4300
1AED80AF9610
0000002CE900
ENDCHAR
STARTCHAR atilde
ENCODING 227
SWIDTH 527 0
DWIDTH 10 0
BBX 11 15 0 -1
BITMAP
009EB4000000
0245FFFA0000
00004DE40000
019ED8000000
08716F700000
0C400DE00000
0CF60BF30000
05E809F60000
000007F80000
05CEFEFB0000
5F6105FD0000
AF4017FF1000
9FFFFBEF4300
1AED80AF9610
0000002CE900
ENDCHAR
STARTCHAR adieresis
ENCODING 228
SWIDTH 527 0
DWIDTH 10 0
BBX 11 15 0 -1
BITMAP
01D89B000000
02E7AA000000
000000000000
019ED8000000
08716F700000
0C400DE00000
0CF60BF30000
05E809F60000
000007F80000
05CEFEFB0000
5F6105FD0000
AF4017FF1000
9FFFFBEF4300
1AED80AF9610
0000002CE900
ENDCHAR
STARTCHAR aring
ENCODING 229
SWIDTH 527 0
DWIDTH 10 0
BBX 11 18 0 -1
BITMAP
001BE9000000
007719400000
00A204600000
008719300000
001BE8000000
000000000000
019ED8000000
08716F700000
0C400DE00000
0CF60BF30000
05E809F60000
000007F80000
05CEFEFB0000
5F6105FD0000
AF4017FF1000
9FFFFBEF4300
1AED80AF9610
0000002CE900
ENDCHAR
STARTCHAR ae
ENCODING 230
SWIDTH 700 0
DWIDTH 13 0
BBX 13 12 0 -1
BITMAP
00000018DEB100
07EC20A404FA00
2D16C55000DC00
5E20ED0002FA00
2E60DD015DE200
006DFFEFD92000
0AA2BF00000000
5E108F40000510
9A009FD0000640
AD23CEFC303D30
7FFF87FFFFFB00
1AEA106DFE9100
ENDCHAR
STARTCHAR ccedilla
ENCODING 231
SWIDTH 437 0
DWIDTH 8 0
BBX 8 15 0 -4
BITMAP
004CFD70
05A18FF2
1E203EC1
7D000000
AB000000
BD000072
9E100028
5F600037
0BE612B2
019EFC40
00016000
0005F900
00005F50
00725F40
002CE900
ENDCHAR
STARTCHAR egrave
ENCODING 232
SWIDTH 434 0
DWIDTH 8 0
BBX 8 15 0 1
BITMAP
0B700000
07F40000
009C0000
00084000
00000000
004BED60
05F717F4
1EB002F8
6F7004F6
9F603DE1
AFEFEA20
9F800034
4FC00027
0AFA1194
018DFD60
ENDCHAR
STARTCHAR eacute
ENCODING 233
SWIDTH 434 0
DWIDTH 8 0
BBX 8 15 0 1
BITMAP
00000A40
00004E00
0000B500
00009000
00000000
004BED60
05F717F4
1EB002F8
6F7004F6
9F603DE1
AFEFEA20
9F800034
4FC00027
0AFA1194
018DFD60
ENDCHAR
STARTCHAR ecircumflex
ENCODING 234
SWIDTH 434 0
DWIDTH 8 0
BBX 8 15 0 1
BITMAP
0004A000
002BD800
01A22DA1
071002A9
00000000
004BED60
05F717F4
1EB002F8
6F7004F6
9F603DE1
AFEFEA20
9F800034
4FC00027
0AFA1194
018DFD60
ENDCHAR
STARTCHAR edieresis
ENCODING 235
SWIDTH 434 0
DWIDTH 8 0
BBX 8 13 0 1
BITMAP
007E4E40
008D4E30
00000000
004BED60
05F717F4
1EB002F8
6F7004F6
9F603DE1
AFEFEA20
9F800034
4FC00027
0AFA1194
018DFD60
ENDCHAR
STARTCHAR igrave
ENCODING 236
SWIDTH 301 0
DWIDTH 5 0
BBX 7 15 -1 2
BITMAP
99000000
4F600000
06E10000
00660000
00000000
0015B100
0AFFF000
007FD000
003FB000
003FA000
003F9000
003F7000
004F6000
007FA100
09EDEF10
ENDCHAR
STARTCHAR iacute
ENCODING 237
SWIDTH 301 0
DWIDTH 5 0
BBX 6 15 0 2
BITMAP
000760
002E20
008800
009000
000000
015B10
AFFF00
07FD00
03FB00
03FA00
03F900
03F700
04F600
07FA10
9EDEF1
ENDCHAR
STARTCHAR icircumflex
ENCODING 238
SWIDTH 301 0
DWIDTH 5 0
BBX 8 14 -1 2
BITMAP
000B3000
008BD200
05708E40
440006D1
0015B100
0AFFF000
007FD000
003FB000
003FA000
003F9000
003F7000
004F6000
007FA100
09EDEF10
ENDCHAR
STARTCHAR idieresis
ENCODING 239
SWIDTH 301 0
DWIDTH 5 0
BBX 6 13 0 2
BITMAP
1D89B0
2E89B0
000000
015B10
AFFF00
07FD00
03FB00
03FA00
03F900
03F700
04F600
07FA10
9EDEF1
ENDCHAR
STARTCHAR eth
ENCODING 240
SWIDTH 476 0
DWIDTH 9 0
BBX 11 16 -2 -2
BITMAP
000000030000
000000250000
005CEDB10000
089316CD2000
4600150BC000
00003003F400
00000000D900
00000000BD00
00006DEBDF10
0006F616FF30
000DC0009F40
001FB0004F40
001FD0002F20
000BF4003D00
0003FD31A700
00003BEE8000
ENDCHAR
STARTCHAR ntilde
ENCODING 241
SWIDTH 584 0
DWIDTH 11 0
BBX 11 15 0 0
BITMAP
00009EB40000
000245FFFA00
0000004DE400
008400000000
29F706DE8000
34FA541CF500
00EC6005F900
00BF5002FA00
008F3002FA00
005F2002F800
003F2003F600
001F4008F500
001F82FFF400
07FFF6138A10
011022000230
ENDCHAR
STARTCHAR ograve
ENCODING 242
SWIDTH 400 0
DWIDTH 7 0
BBX 12 15 0 3
BITMAP
0000000003E9
0000000003FF
4D200000004F
1DB00000000B
02E500000035
003A00000090
000000001920
00000027B300
04C8EEC71000
2EC07E200000
9F403FB00000
BF101FE00000
AF104FD00000
4F71BF600000
05DEC5000000
ENDCHAR
STARTCHAR oacute
ENCODING 243
SWIDTH 400 0
DWIDTH 7 0
BBX 12 15 0 3
BITMAP
0000000003E9
0000000003FF
00000A30004F
00004D00000B
0000B5000035
000190000090
000000001920
00000027B300
04C8EEC71000
2EC07E200000
9F403FB00000
BF101FE00000
AF104FD00000
4F71BF600000
05DEC5000000
ENDCHAR
STARTCHAR ocircumflex
ENCODING 244
SWIDTH 400 0
DWIDTH 7 0
BBX 12 15 0 3
BITMAP
0000000003E9
0000000003FF
00000000004F
00077000000B
003BE5000035
02914E800090
160003C61920
00000027B300
04C8EEC71000
2EC07E200000
9F403FB00000
BF101FE00000
AF104FD00000
4F71BF600000
05DEC5000000
ENDCHAR
STARTCHAR otilde
ENCODING 245
SWIDTH 400 0
DWIDTH 7 0
BBX 12 15 0 3
BITMAP
0000000003E9
0000000003FF
00000000004F
00000000000B
000000000035
00AEA4000090
0336FFF91920
00005DFAB300
04C8EEC71000
2EC07E200000
9F403FB00000
BF101FE00000
AF104FD00000
4F71BF600000
05DEC5000000
ENDCHAR
STARTCHAR odieresis
ENCODING 246
SWIDTH 400 0
DWIDTH 7 0
BBX 12 15 0 3
BITMAP
0000000003E9
0000000003FF
00000000004F
00000000000B
000000000035
00BC5E100090
00CB6E101920
00000027B300
04C8EEC71000
2EC07E200000
9F403FB00000
BF101FE00000
AF104FD00000
4F71BF600000
05DEC5000000
ENDCHAR
STARTCHAR divide
ENCODING 247
SWIDTH 592 0
DWIDTH 11 0
BBX 10 7 0 2
BITMAP
0000CB0000
0000DB0000
0000000110
1EFEDDDDD9
0000000000
0000BC0000
0000CB0000
ENDCHAR
STARTCHAR oslash
ENCODING 248
SWIDTH 396 0
DWIDTH 7 0
BBX 7 12 0 0
BITMAP
00004000
00018000
04CED600
3F77BF50
9E091FB0
BC180FC0
AD743F90
5FD1BF30
06FFC300
03900000
07400000
05000000
ENDCHAR
STARTCHAR ugrave
ENCODING 249
SWIDTH 744 0
DWIDTH 13 0
BBX 14 15 0 0
BITMAP
0002D300000000
0000BD10000000
00001D80000000
000001B0000000
00000000000000
000000014A5000
0019006EFF7000
04DF00005F8000
9CFF30001F9000
008F60001FB000
005FA0003FC000
003FE1007BF100
000EF913B7FEE5
0008FFFF526310
00019EE7000000
ENDCHAR
STARTCHAR uacute
ENCODING 250
SWIDTH 744 0
DWIDTH 13 0
BBX 14 15 0 0
BITMAP
0000001C000000
0000009A000000
000001E2000000
00000450000000
00000000000000
000000014A5000
0019006EFF7000
04DF00005F8000
9CFF30001F9000
008F60001FB000
005FA0003FC000
003FE1007BF100
000EF913B7FEE5
0008FFFF526310
00019EE7000000
ENDCHAR
STARTCHAR ucircumflex
ENCODING 251
SWIDTH 744 0
DWIDTH 13 0
BBX 14 15 0 0
BITMAP
00000B30000000
00007BE2000000
0005708E500000
00350006D20000
00000000000000
000000014A5000
0019006EFF7000
04DF00005F8000
9CFF30001F9000
008F60001FB000
005FA0003FC000
003FE1007BF100
000EF913B7FEE5
0008FFFF526310
00019EE7000000
ENDCHAR
STARTCHAR udieresis
ENCODING 252
SWIDTH 744 0
DWIDTH 13 0
BBX 14 13 0 0
BITMAP
00006E4E500000
00007E4E500000
00000000000000
000000014A5000
0019006EFF7000
04DF00005F8000
9CFF30001F9000
008F60001FB000
005FA0003FC000
003FE1007BF100
000EF913B7FEE5
0008FFFF526310
00019EE7000000
ENDCHAR
STARTCHAR yacute
ENCODING 253
SWIDTH 659 0
DWIDTH 12 0
BBX 12 21 0 -8
BITMAP
00000002C000
000000099000
0000001E1000
000000540000
0003B5000023
14AF704EEFF7
AFFB0002DFC0
07FB00007FA0
04FC00007F90
01FF10008F80
00AF6000BF60
002FE4177F40
0004CFC46F20
000000007E00
000000009A00
00000000B600
003CE401E100
0069FA06A000
0073E61D3000
00B403D60000
003CFC400000
ENDCHAR
STARTCHAR thorn
ENCODING 254
SWIDTH 514 0
DWIDTH 9 0
BBX 10 27 -1 -12
BITMAP
0029500000
18FB000000
CEF6000000
04F6000000
02F6000000
00F7000000
00E8000000
00DABFE810
00CF31AFB0
00BC001EF5
00AC000AFA
00AD0008FD
00AE0009FD
009F200BFB
009F905FF5
009F6CFD60
009F400000
009F500000
008F600000
009F700000
009F800000
009F800000
009F900000
00AFA00000
02DFC00000
4FEFF61000
000149E100
ENDCHAR
STARTCHAR ydieresis
ENCODING 255
SWIDTH 659 0
DWIDTH 12 0
BBX 12 21 0 -8
BITMAP
00000BC5E100
00000CB6D100
000000000000
000000000000
0003B5000023
14AF704EEFF7
AFFB0002DFC0
07FB00007FA0
04FC00007F90
01FF10008F80
00AF6000BF60
002FE4177F40
0004CFC46F20
000000007E00
000000009A00
00000000B600
003CE401E100
0069FA06A000
0073E61D3000
00B403D60000
003CFC400000
ENDCHAR
STARTCHAR dotlessi
ENCODING 305
SWIDTH 301 0
DWIDTH 5 0
BBX 6 10 0 2
BITMAP
015B10
AFFF00
07FD00
03FB00
03FA00
03F900
03F700
04F600
07FA10
9EDEF1
ENDCHAR
STARTCHAR OE
ENCODING 338
SWIDTH 1132 0
DWIDTH 20 0
BBX 21 20 0 -4
BITMAP
0000000000000000021000
00000000000000049F3000
00039DFDA44FFFFDAD3000
008F92029F89FA20045000
07F9000006FDF700005000
2FE10000009FF800000000
8FA00000002FF900010000
BF900000000CFA00050000
DFA000000008FC03940000
DFB000000007FFEAD40000
BFF100000006FE00450000
7FF600000007FE00040000
1EFE1000000CFF00000000
06FFB000005EFF10000050
007FFC4017A5FF20000440
00029DEEB504FF30000B40
000000000005FF5125BF40
00000000001BFFFFFFFF40
0000000005CA6310001200
0000000001000000000000
ENDCHAR
STARTCHAR oe
ENCODING 339
SWIDTH 798 0
DWIDTH 14 0
BBX 15 8 0 2
BITMAP
02BED9101AEE7000
1E716FD1D813F100
7F1007FDF117E000
BF1000EFFEEC4800
AF5000BFF2000710
6FB000AFF7000800
0CF913D7FE515800
018EFC309EFE8000
ENDCHAR
STARTCHAR circumflex
ENCODING 710
SWIDTH 483 0
DWIDTH 9 0
BBX 7 4 1 12
BITMAP
003B0000
01BCA000
0931CB20
620019A0
ENDCHAR
STARTCHAR caron
ENCODING 711
SWIDTH 428 0
DWIDTH 8 0
BBX 6 5 1 12
BITMAP
100015
B30180
1D6A10
04F600
00A000
ENDCHAR
STARTCHAR ring
ENCODING 730
SWIDTH 330 0
DWIDTH 6 0
BBX 5 5 0 15
BITMAP
04DD40
0C32C0
1B00A0
0D22B0
05ED30
ENDCHAR
STARTCHAR tilde
ENCODING 732
SWIDTH 433 0
DWIDTH 8 0
BBX 6 3 1 13
BITMAP
7EC510
64EFFC
002CE6
ENDCHAR
STARTCHAR mu.dup1
ENCODING 956
SWIDTH 634 0
DWIDTH 11 0
BBX 12 17 0 -7
BITMAP
001000000000
3F6000020000
4F5000AF3000
4F50007F4000
3F70004F6000
3FA0003F7000
2FE1004F9080
2FDB12BCB045
1F97DE45F455
1FA000007EB1
0FB000000000
0FD000000000
0EE000000000
0EF100000000
0DF300000000
0CF400000000
010000000000
ENDCHAR
STARTCHAR endash
ENCODING 8211
SWIDTH 436 0
DWIDTH 8 0
BBX 6 2 1 3
BITMAP
310012
9DFFEA
ENDCHAR
STARTCHAR emdash
ENCODING 8212
SWIDTH 651 0
DWIDTH 12 0
BBX 10 2 1 3
BITMAP
13579BCEFA
7765432210
ENDCHAR
STARTCHAR quoteleft
ENCODING 8216
SWIDTH 287 0
DWIDTH 5 0
BBX 5 6 0 9
BITMAP
004710
03D000
0BF100
0FFA00
1FFD00
08E800
ENDCHAR
STARTCHAR quoteright
ENCODING 8217
SWIDTH 291 0
DWIDTH 5 0
BBX 5 6 0 8
BITMAP
0BE800
1FFF30
07FF50
005F30
001C00
019200
ENDCHAR
STARTCHAR quotesinglbase
ENCODING 8218
SWIDTH 272 0
DWIDTH 5 0
BBX 3 6 1 -3
BITMAP
AE80
FFF0
7FE0
0790
0820
1600
ENDCHAR
STARTCHAR quotedblleft
ENCODING 8220
SWIDTH 445 0
DWIDTH 8 0
BBX 8 7 0 8
BITMAP
00073000
00A40360
06D01D00
0DE05F40
1FF76FE1
1FFC2DC0
09E70000
ENDCHAR
STARTCHAR quotedblright
ENCODING 8221
SWIDTH 444 0
DWIDTH 8 0
BBX 7 7 1 8
BITMAP
BE500000
FFC5EA00
7FC9FF10
0A83FE00
0A20A900
3601B100
00281000
ENDCHAR
STARTCHAR quotedblbase
ENCODING 8222
SWIDTH 482 0
DWIDTH 9 0
BBX 7 7 1 -5
BITMAP
9E900000
FFF2AE60
9FF4FFB0
07F19F90
03A00F40
07204A00
00019100
ENDCHAR
STARTCHAR bullet
ENCODING 8226
SWIDTH 351 0
DWIDTH 6 0
BBX 6 4 0 5
BITMAP
05DE90
0EFFF5
1FFFF5
06EE90
ENDCHAR
STARTCHAR guilsinglleft
ENCODING 8249
SWIDTH 465 0
DWIDTH 8 0
BBX 7 12 1 -2
BITMAP
00002200
00009000
00066000
004D0000
05F50000
9FE00000
7FF70000
03DF3000
001BD100
0001B800
00000A30
00000020
ENDCHAR
STARTCHAR guilsinglright
ENCODING 8250
SWIDTH 449 0
DWIDTH 8 0
BBX 7 12 1 -2
BITMAP
41000000
39000000
0B700000
02F80000
008FC300
005FFB10
00DF7000
07F50000
1E700000
7A000000
C1000000
50000000
ENDCHAR
STARTCHAR fraction
ENCODING 8260
SWIDTH 406 0
DWIDTH 7 0
BBX 13 18 -3 -1
BITMAP
00000000000230
00000000000A10
00000000008500
00000000049000
000000001C1000
00000000B40000
00000007800000
0000003B000000
000001C2000000
00000950000000
00005900000000
0002B100000000
000B3000000000
00760000000000
03A00000000000
0B100000000000
74000000000000
10000000000000
ENDCHAR
STARTCHAR foursuperior
ENCODING 8308
SWIDTH 473 0
DWIDTH 9 0
BBX 9 11 0 6
BITMAP
0000700000
0007A00000
001EC00000
007AE00000
0256F14000
0703F5C000
5CCEFFF100
2321FA0000
0002FF5000
004EFEFF10
0024100000
ENDCHAR
STARTCHAR Euro
ENCODING 8364
SWIDTH 799 0
DWIDTH 14 0
BBX 16 15 0 -1
BITMAP
0000000000000051
0000006BEFD82290
00002DFA3029FF30
0002DF800000AD00
000AFD0000003900
003FF60000000600
008FF34771000000
03CFF73230000000
57DFE79600000000
38EFE40000000000
969FF10000006000
003FF40000025000
000AFC0000081000
0001CFB302760000
000017CFEB400000
ENDCHAR
STARTCHAR minus
ENCODING 8722
SWIDTH 436 0
DWIDTH 8 0
BBX 6 2 1 3
BITMAP
310012
9DFFEA
ENDCHAR
STARTCHAR f_f
ENCODING 64256
SWIDTH 467 0
DWIDTH 8 0
BBX 11 27 0 -6
BITMAP
0001AEC10000
00072FF60000
00350BD20000
0082005DE900
00B005B18F60
00C00D21CF80
02C03C08FF60
03C06A05EC10
04C089000000
05C099000000
05C099120000
05E8DFDB1000
2DF7AB000000
16F07E000000
05F15F100000
04F33F500000
03F50F800000
02F70CD00000
01FA09F40000
00EC05FC1000
00DF03FFE400
00BF28C51000
00AF56000000
009F90000000
008FE1000000
02DFF9000000
6EDDFFD10000
ENDCHAR
STARTCHAR .notdef
ENCODING -1
SWIDTH 270 0
DWIDTH 5 0
BBX 5 11 0 0
BITMAP
5FFF30
100010
100010
100010
100010
100010
100010
100010
100010
100010
5FFF30
ENDCHAR
STARTCHAR .null
ENCODING -1
SWIDTH 0 0
DWIDTH 0 0
BBX 1 1 0 0
BITMAP
00
ENDCHAR
STARTCHAR nonmarkingreturn
ENCODING -1
SWIDTH 270 0
DWIDTH 5 0
BBX 1 1 0 0
BITMAP
00
ENDCHAR
STARTCHAR dieresis.case
ENCODING -1
SWIDTH 393 0
DWIDTH 7 0
BBX 7 3 0 14
BITMAP
0BD10000
1FF49E10
0BD19D00
ENDCHAR
STARTCHAR o.cmp
ENCODING -1
SWIDTH 400 0
DWIDTH 7 0
BBX 12 15 0 3
BITMAP
0000000003E9
0000000003FF
00000000004F
00000000000B
000000000035
000000000090
000000001920
00000027B300
04C8EEC71000
2EC07E200000
9F403FB00000
BF101FE00000
AF104FD00000
4F71BF600000
05DEC5000000
ENDCHAR
STARTCHAR n_n
ENCODING -1
SWIDTH 1024 0
DWIDTH 18 0
BBX 19 13 0 -1
BITMAP
00730000000000000000
19F705DE800000000000
BDF9342CF5CFD0000000
02FB5006F90DD3CF9000
00DE5003FA0CD919F700
009F3002FA0CF203FB00
006F2002F80DE002FC00
003F2002F70ED003FB00
001F4004F50EE106F900
001F8008F4AFDB1BF600
07FFF7FFF74204FFFB00
011022004C4000013620
00000000001000000000
ENDCHAR
STARTCHAR a_a
ENCODING -1
SWIDTH 911 0
DWIDTH 16 0
BBX 17 13 0 -1
BITMAP
000000001AEE800000
00000000BB13D90000
00000000FE106F2000
05DE9000BE204F5000
2D12D50000003F6000
6E207902ADEC8F7000
4E407B0CE403AF8000
04BEFC3F8D505F8000
3FD46E4F75806F9000
9F507F3ED374AF9000
8F717EB5CFD64FB000
2CEB13BED3000DE260
00000000000003DE80
ENDCHAR
STARTCHAR t_h
ENCODING -1
SWIDTH 854 0
DWIDTH 15 0
BBX 17 23 -1 -4
BITMAP
000000149A00000000
00001EFFFB00000000
00000004FA00000000
00000000E900000000
00000440E800000000
00002D10F700000000
0016EE11F600000000
3CFFFFFFFF90000000
0207F803F500000000
0008F504F37DFC4000
0009F305FA812DF300
000AF206FA0005FA00
000BF207F50002FC00
000AF308F23E81FE00
0008F509F12EB1FD00
0003FB0AF00982FC00
00008F9CF16D13FA00
000005BFFD9205F700
0000001FF81008F400
000003CFFFE10CF200
00001C6100018FF200
00000000002FFFF900
000000000000015C40
ENDCHAR
STARTCHAR s_s
ENCODING -1
SWIDTH 654 0
DWIDTH 12 0
BBX 13 16 -1 -3
BITMAP
00000001200010
0001BECA000520
0008E1669EEE00
0009C037F32C00
0004F309D00700
00008E36F10100
00000AE4E90000
000001CE8F5000
0260003FADE200
05705E6DC5FB00
0BB0CC3EB0EF30
2467B18F40CF70
0005EEC400CF70
0000620001EF40
00001B412BFA00
000001AEFD6000
ENDCHAR
STARTCHAR t_t
ENCODING -1
SWIDTH 569 0
DWIDTH 10 0
BBX 11 16 0 -2
BITMAP
00000BD00000
00034EC00000
001C3FB26200
04DF8FFB1000
CFFFEFA00000
04FC5F500000
04F95F300000
05F74F300000
06F63F400000
06F61F61EB00
05F70DB09E30
03F806F61A20
00EB007DE700
009F100CD100
001DB25FE000
00018DEC4000
ENDCHAR
STARTCHAR e_e
ENCODING -1
SWIDTH 782 0
DWIDTH 14 0
BBX 14 10 0 0
BITMAP
02AED403BED700
2EB25C2EB23E30
9F302DAF200A70
DF006AED000A60
DF27D2FD000D20
BFE920DE005B25
5F90009F63D209
08FA413FEC2009
004AEFDCFB3176
000000004CEE80
ENDCHAR
STARTCHAR o_o
ENCODING -1
SWIDTH 751 0
DWIDTH 14 0
BBX 19 15 0 1
BITMAP
0000000000000000CD10
0000000000000000DF50
00000000000000002D40
00000000000000000910
00000000000000000900
00000000000000007400
00000000000000068000
018DFC40000025C70000
0BF613D8D5AFE9300000
5F80008F501E60000000
9F3000DF200BF1000000
AF2000EF200BF2000000
8F4000CE216FC0000000
1EC218FADFD910000000
02AEFC50000000000000
ENDCHAR
STARTCHAR l_l
ENCODING -1
SWIDTH 573 0
DWIDTH 10 0
BBX 12 18 -1 -3
BITMAP
000A3026C100
04DF3BFFF100
59CF304FF100
00AF301FF100
009F300FF100
009F400EF100
009F400DF100
009F400CF200
009F400CF300
009F500CF400
009F500BF500
009F600BF700
00AF600BF900
00AF700CFD20
00CF818EDEF4
CEFFB0000000
0259E7000000
000015200000
ENDCHAR
STARTCHAR z_z
ENCODING -1
SWIDTH 875 0
DWIDTH 16 0
BBX 17 13 -1 -1
BITMAP
000005930000000000
000006FFFFFC000000
0000041004F7000000
00CFFFFF48E1000000
00702FF91E90000000
00306FD07F30000000
0001EF31EC00000000
0009F808F600600000
003FD01EF102C05E90
00DF406FFFFFF07FD0
07F900000000001FB0
2FFCEFEDB842104F40
000001357ACEFDA300
ENDCHAR
STARTCHAR j_j
ENCODING -1
SWIDTH 577 0
DWIDTH 10 0
BBX 12 24 -2 -11
BITMAP
00000009E300
0000000FF700
00002E9AE300
00003E914810
0011018FFF60
003BFFF9DFC0
00006FFB4FF1
000009FD0CF4
000003FF07F7
000000EF13F9
000000BF20EB
0000009F30CD
0000007F30AE
0000006F308F
0000005F206F
0000006F105F
2BE8007D005F
BFFB009A005D
EA5100C5006B
E00004D00078
88115E700094
08DEBBF800A0
000008FE2640
000002CFC500
ENDCHAR
STARTCHAR f_b
ENCODING -1
SWIDTH 731 0
DWIDTH 13 0
BBX 15 23 -1 -3
BITMAP
000007DE70000000
00007913E3000000
0001D000D7000000
0005904CF6000000
000971FFF2000000
000C509B76000000
000E5059FA000000
004FA3FFFA000000
6AFFC312FA000000
337F8000EA000000
003F8000CA000000
003F8000CA000000
003F9000CA000000
003F9000CA000000
003FA000CCCEC300
003FA000CD25FD00
002FB000C900FF20
002FC000C801FF20
002FC001EB17FC00
002FD00AFFFFC300
003FF33610110000
006FFFD100000000
0783100000000000
ENDCHAR
STARTCHAR f_k
ENCODING -1
SWIDTH 708 0
DWIDTH 13 0
BBX 13 21 0 -3
BITMAP
00000800000000
0004CC00000000
06DFFFED600000
0115EC0BF20000
001BAC5FF30000
00779D5EB00000
00C59D00000000
01F38E00000000
2CF28F05410000
14F18F009FC300
04F17F11C40000
05F17F2B300000
05F07FCE000000
05F07FAF300100
05F06F5E900610
05F06F59F20170
06F16F71EC2480
09F26F803BFC20
6FF78FC3200000
006DFFFFF20000
00321001200000
ENDCHAR
STARTCHAR f_h
ENCODING -1
SWIDTH 873 0
DWIDTH 16 0
BBX 17 23 -1 -3
BITMAP
000007EE7000000000
00006912E400000000
0000C001E700000000
0004908EF500000000
000871FFC580000000
000B5026AF60000000
000D509FFF40000000
001FA4737F30000000
019FFA504F20000000
9CEF80004F10000000
004F80005F00000000
003F80006E00000000
003F90007E00000000
003F90008D1AED4000
002FA0009D823FE100
002FA000AF500BF300
002FB000CF100AF400
002FB000DC000BF400
002FC001FB000CF500
002FD006FB004FFF90
003FF3FFFF70530110
008FFFD21350000000
078410000000000000
ENDCHAR
ENDFONT
